<?xml version="1.0" encoding="UTF-8" standalone="no"?>
<svg 
    role="img" 
    xmlns="http://www.w3.org/2000/svg" 
    width="1000mm"
    height="1000mm"
    viewBox="0 0 1000 1000"
    style="max-width:1.6em; height: auto;">
    
    <path 
        id="path" 
        style="opacity:1;vector-effect:none;fill:#000000;fill-opacity:1;"
        d="M 500 0C 224 0 0 224 0 500C 0 776 224 1000 500 1000C 776 1000 1000 776 1000 500C 1000 224 776 0 500 0C 500 0 500 0 500 0 M 649 246C 701 310 702 409 652 474 685 509 705 554 709 601 717 697 649 791 557 816 468 843 364 800 319 719 273 643 285 538 348 474 319 436 306 386 312 339 323 247 408 172 500 173 557 173 613 201 649 246ZM 462 371C 466 405 516 414 533 386 550 361 531 321 500 323 475 322 456 347 462 371ZM 488 559C 448 565 427 616 451 648 475 688 545 679 557 633 569 597 538 556 500 558 496 558 492 559 488 559Z"
        transform="">
    </path>    
</svg>